<svg width="128" height="128" viewBox="0 0 128 128" fill="none" xmlns="http://www.w3.org/2000/svg">
  <!-- Réseau distribué - nœuds interconnectés -->
  <circle cx="32" cy="32" r="8" fill="#10b981" stroke="#059669" stroke-width="2"/>
  <circle cx="96" cy="32" r="8" fill="#10b981" stroke="#059669" stroke-width="2"/>
  <circle cx="32" cy="96" r="8" fill="#10b981" stroke="#059669" stroke-width="2"/>
  <circle cx="96" cy="96" r="8" fill="#10b981" stroke="#059669" stroke-width="2"/>
  <circle cx="64" cy="64" r="8" fill="#10b981" stroke="#059669" stroke-width="2"/>
  
  <!-- Nœuds intermédiaires -->
  <circle cx="64" cy="20" r="6" fill="#34d399" stroke="#10b981" stroke-width="2"/>
  <circle cx="108" cy="64" r="6" fill="#34d399" stroke="#10b981" stroke-width="2"/>
  <circle cx="64" cy="108" r="6" fill="#34d399" stroke="#10b981" stroke-width="2"/>
  <circle cx="20" cy="64" r="6" fill="#34d399" stroke="#10b981" stroke-width="2"/>
  
  <!-- Connexions horizontales et verticales -->
  <line x1="32" y1="32" x2="64" y2="20" stroke="#10b981" stroke-width="2"/>
  <line x1="96" y1="32" x2="64" y2="20" stroke="#10b981" stroke-width="2"/>
  <line x1="96" y1="32" x2="108" y2="64" stroke="#10b981" stroke-width="2"/>
  <line x1="96" y1="96" x2="108" y2="64" stroke="#10b981" stroke-width="2"/>
  <line x1="96" y1="96" x2="64" y2="108" stroke="#10b981" stroke-width="2"/>
  <line x1="32" y1="96" x2="64" y2="108" stroke="#10b981" stroke-width="2"/>
  <line x1="32" y1="96" x2="20" y2="64" stroke="#10b981" stroke-width="2"/>
  <line x1="32" y1="32" x2="20" y2="64" stroke="#10b981" stroke-width="2"/>
  
  <!-- Connexions entre les nœuds principaux -->
  <line x1="32" y1="32" x2="64" y2="64" stroke="#10b981" stroke-width="2"/>
  <line x1="96" y1="32" x2="64" y2="64" stroke="#10b981" stroke-width="2"/>
  <line x1="96" y1="96" x2="64" y2="64" stroke="#10b981" stroke-width="2"/>
  <line x1="32" y1="96" x2="64" y2="64" stroke="#10b981" stroke-width="2"/>
  
  <!-- Connexions diagonales pour montrer la distribution -->
  <line x1="32" y1="32" x2="96" y2="96" stroke="#34d399" stroke-width="1" stroke-dasharray="3,3"/>
  <line x1="96" y1="32" x2="32" y2="96" stroke="#34d399" stroke-width="1" stroke-dasharray="3,3"/>
  
  <!-- Symbole de check au centre -->
  <path d="M58 64L62 68L70 60" stroke="white" stroke-width="2" stroke-linecap="round" stroke-linejoin="round"/>
  
  <!-- Texte indicateur -->
  <text x="64" y="12" text-anchor="middle" font-family="Arial, sans-serif" font-size="10" font-weight="bold" fill="#10b981">IA DISTRIBUÉE</text>
  <text x="64" y="122" text-anchor="middle" font-family="Arial, sans-serif" font-size="8" fill="#059669">OMNIREALM</text>
</svg>